<svg width="113" height="38" viewBox="0 0 113 38" fill="none" xmlns="http://www.w3.org/2000/svg">
<path d="M110 21.5C111.381 21.5 112.5 20.3807 112.5 19C112.5 17.6193 111.381 16.5 110 16.5L110 21.5ZM1.23223 17.2322C0.25592 18.2086 0.25592 19.7915 1.23223 20.7678L17.1421 36.6777C18.1184 37.654 19.7014 37.654 20.6777 36.6777C21.654 35.7014 21.654 34.1185 20.6777 33.1421L6.53554 19L20.6777 4.85787C21.654 3.88156 21.654 2.29865 20.6777 1.32234C19.7014 0.346028 18.1184 0.346028 17.1421 1.32234L1.23223 17.2322ZM110 16.5L3 16.5L3 21.5L110 21.5L110 16.5Z" fill="#3DCFB6"/>
</svg>
