<svg width="45" height="85" viewBox="0 0 45 85" fill="none" xmlns="http://www.w3.org/2000/svg">
<path d="M25.7071 19.2929C25.3166 18.9024 24.6834 18.9024 24.2929 19.2929L17.9289 25.6569C17.5384 26.0474 17.5384 26.6805 17.9289 27.0711C18.3195 27.4616 18.9526 27.4616 19.3431 27.0711L25 21.4142L30.6569 27.0711C31.0474 27.4616 31.6805 27.4616 32.0711 27.0711C32.4616 26.6805 32.4616 26.0474 32.0711 25.6569L25.7071 19.2929ZM26 65L26 20L24 20L24 65L26 65Z" fill="#3DCFB6"/>
<g opacity="0.6" filter="url(#filter0_f_3129_2961)">
<ellipse cx="25.5" cy="44.5" rx="5.5" ry="26.5" fill="#3DCFB6"/>
</g>
<defs>
<filter id="filter0_f_3129_2961" x="0" y="-2" width="51" height="93" filterUnits="userSpaceOnUse" color-interpolation-filters="sRGB">
<feFlood flood-opacity="0" result="BackgroundImageFix"/>
<feBlend mode="normal" in="SourceGraphic" in2="BackgroundImageFix" result="shape"/>
<feGaussianBlur stdDeviation="10" result="effect1_foregroundBlur_3129_2961"/>
</filter>
</defs>
</svg>
