                            <svg width="18" height="18" viewBox="0 0 18 18" fill="none"
                            xmlns="http://www.w3.org/2000/svg">
                            <path
                                d="M2 18C1.45 18 0.979167 17.8042 0.5875 17.4125C0.195833 17.0208 0 16.55 0 16V2C0 1.45 0.195833 0.979167 0.5875 0.5875C0.979167 0.195833 1.45 0 2 0H16C16.55 0 17.0208 0.195833 17.4125 0.5875C17.8042 0.979167 18 1.45 18 2V16C18 16.55 17.8042 17.0208 17.4125 17.4125C17.0208 17.8042 16.55 18 16 18H2ZM2 16H16V2H2V16Z"
                                fill="#FD2E12" />
                            <path transform="scale(0.5) translate(14, 5)"
                                d="M2.60014 16.5715C2.66871 16.9922 2.88391 17.7778 3.55058 17.7778C4.21724 17.7778 4.28353 16.9123 4.43947 16.4445C4.88391 15.1112 6.21725 3.30163 6.21725 2.69845C6.21725 0.888889 5.55058 0 3.55058 0C1.86403 0 0.883911 0.444445 0.883911 2.66671C1.32836 7.55556 2.21724 14.2223 2.60014 16.5715Z"
                                fill="#FD2E12" />

                                <ellipse transform="scale(0.5) translate(14, 5)" cx="3.55073" cy="22.2222" rx="1.77778" ry="1.77778" fill="#FD2E12"/>
                        </svg>
