<svg width="178" height="78" viewBox="0 0 178 78" fill="none" xmlns="http://www.w3.org/2000/svg">
<path d="M73 21.6266C73 29.6113 82.1099 39.3381 89.3097 45C95.6278 39.7736 104.811 31.4259 105.472 21.6266C105.972 14.2258 99.6685 4.78593 89.3097 5.0037C76.8937 5.26471 73 15.0209 73 21.6266Z" fill="#3DCFB6"/>
<path d="M93.0312 19.7778C92.9651 21.9256 91.2524 23.6169 89.2057 23.5555C87.1591 23.4941 85.5535 21.7032 85.6196 19.5555C85.6857 17.4078 87.3984 15.7164 89.445 15.7778C91.4917 15.8392 93.0972 17.6301 93.0312 19.7778Z" fill="#4A4A4A"/>
<path d="M95.9378 44C102.755 47.6522 97.1052 51 89.5747 51C82.0442 51 76.3941 47.3478 82.7571 44" stroke="#FFFDFD" stroke-width="2" stroke-linecap="round"/>
</svg>
