<svg width="56" height="41" viewBox="0 0 56 41" fill="none" xmlns="http://www.w3.org/2000/svg">
<path d="M55.4557 15.2523C55.2997 15.1219 53.897 14.0541 50.8843 14.0541C50.1049 14.0541 49.2999 14.1322 48.5205 14.2626C47.9496 10.2759 44.6504 8.34771 44.521 8.243L43.7159 7.7738L43.1963 8.52946C42.5474 9.54589 42.0535 10.6927 41.768 11.8652C41.2227 14.1322 41.5606 16.2688 42.7034 18.0932C41.3265 18.8745 39.0931 19.0573 38.6258 19.083H1.74391C0.782799 19.083 0.00343642 19.8643 0.00343642 20.8294C-0.0489162 24.0604 0.497329 27.2915 1.61353 30.3408C2.88579 33.6765 4.78234 36.1519 7.22316 37.6632C9.97612 39.3573 14.4696 40.3213 19.5339 40.3213C21.8197 40.3213 24.1054 40.1129 26.3645 39.6961C29.5066 39.1231 32.5203 38.0287 35.299 36.4393C37.5847 35.1108 39.6364 33.4167 41.3768 31.4362C44.3115 28.1271 46.052 24.4269 47.3243 21.1435H47.8439C51.0384 21.1435 53.0129 19.8663 54.1035 18.7718C54.8305 18.0942 55.3757 17.2605 55.7659 16.3221L56 15.6445L55.4548 15.2533L55.4557 15.2523Z" fill="#B5E93B"/>
<path d="M5.19526 18.035H10.1302C10.3643 18.035 10.5718 17.8522 10.5718 17.5915V13.1543C10.5718 12.9192 10.39 12.7108 10.1302 12.7108H5.19526C4.96116 12.7108 4.75372 12.8936 4.75372 13.1543V17.5915C4.77941 17.8522 4.96116 18.035 5.19526 18.035ZM11.9991 18.035H16.9341C17.1682 18.035 17.3756 17.8522 17.3756 17.5915V13.1543C17.3756 12.9192 17.1939 12.7108 16.9341 12.7108H11.9991C11.765 12.7108 11.5576 12.8936 11.5576 13.1543V17.5915C11.5833 17.8522 11.765 18.035 11.9991 18.035ZM18.9344 18.035H23.8693C24.1035 18.035 24.3109 17.8522 24.3109 17.5915V13.1543C24.3109 12.9192 24.1291 12.7108 23.8693 12.7108H18.9344C18.7003 12.7108 18.4928 12.8936 18.4928 13.1543V17.5915C18.4928 17.8522 18.6746 18.035 18.9344 18.035ZM25.7649 18.035H30.6999C30.934 18.035 31.1414 17.8522 31.1414 17.5915V13.1543C31.1414 12.9192 30.9597 12.7108 30.6999 12.7108H25.7649C25.5308 12.7108 25.3234 12.8936 25.3234 13.1543V17.5915C25.3234 17.8522 25.5308 18.035 25.7649 18.035ZM11.9991 11.6934H16.9341C17.1682 11.6934 17.3756 11.485 17.3756 11.2499V6.81276C17.3756 6.57766 17.1939 6.36924 16.9341 6.36924H11.9991C11.765 6.36924 11.5576 6.55198 11.5576 6.81276V11.2499C11.5833 11.485 11.765 11.6934 11.9991 11.6934ZM18.9344 11.6934H23.8693C24.1035 11.6934 24.3109 11.485 24.3109 11.2499V6.81276C24.3109 6.57766 24.1291 6.36924 23.8693 6.36924H18.9344C18.7003 6.36924 18.4928 6.55198 18.4928 6.81276V11.2499C18.4928 11.485 18.6746 11.6934 18.9344 11.6934ZM25.7649 11.6934H30.6999C30.934 11.6934 31.1414 11.485 31.1414 11.2499V6.81276C31.1414 6.57766 30.934 6.36924 30.6999 6.36924H25.7649C25.5308 6.36924 25.3234 6.55198 25.3234 6.81276V11.2499C25.3234 11.485 25.5308 11.6934 25.7649 11.6934ZM25.7649 5.32416H30.6999C30.934 5.32416 31.1414 5.14142 31.1414 4.88065V0.443516C31.1414 0.208423 30.934 0 30.6999 0H25.7649C25.5308 0 25.3234 0.18274 25.3234 0.443516V4.88065C25.3234 5.11574 25.5308 5.32416 25.7649 5.32416ZM32.6468 18.035H37.5818C37.8159 18.035 38.0233 17.8522 38.0233 17.5915V13.1543C38.0233 12.9192 37.8416 12.7108 37.5818 12.7108H32.6468C32.4127 12.7108 32.2053 12.8936 32.2053 13.1543V17.5915C32.2309 17.8522 32.4127 18.035 32.6468 18.035Z" fill="#B5E93B"/>
</svg>
