<svg width="56" height="46" viewBox="0 0 56 46" fill="none" xmlns="http://www.w3.org/2000/svg">
<g clip-path="url(#clip0_3418_3319)">
<path d="M40.7219 4.20921L33.7192 11.282C31.6807 10.1657 29.3536 9.65335 27.0104 9.83401C24.7616 10.0066 22.6206 10.8074 20.8193 12.1206C19.1826 11.6379 17.4784 11.3899 15.7797 11.3899H15.7096C12.9376 11.406 10.2546 12.0532 7.81433 13.2801C8.86056 10.8344 10.3463 8.59904 12.1988 6.67646C14.7955 3.9881 18.0258 2.0089 21.5878 0.930315C25.1498 -0.148267 28.9276 -0.29118 32.5597 0.512364C35.5123 1.16491 38.287 2.42685 40.7219 4.20921Z" fill="#3DCFB6"/>
<path d="M55.2908 34.2693C54.2823 37.5455 52.2573 40.4037 49.515 42.4261C46.7727 44.4484 43.4588 45.527 40.0639 45.5H30.0412V35.6714H40.0639C40.8621 35.6714 41.6521 35.5123 42.391 35.2023C43.1271 34.8949 43.7985 34.4419 44.3621 33.8729C44.9256 33.3039 45.3759 32.6271 45.6806 31.8802C45.9853 31.136 46.1444 30.3378 46.1444 29.5316C46.1444 28.7254 45.9853 27.9272 45.6806 27.183C45.3759 26.4388 44.9256 25.762 44.3621 25.1903C43.7985 24.6214 43.1271 24.1684 42.391 23.861C41.6521 23.5509 40.8621 23.3918 40.0639 23.3918V22.1676C40.0963 20.3124 39.7134 18.4734 38.9422 16.7882C38.6024 16.0439 38.1899 15.3402 37.7126 14.6849C37.1356 13.8895 36.4588 13.1641 35.7038 12.5278C35.6714 12.5008 35.6363 12.4711 35.604 12.4442L42.3397 5.6437L42.4368 5.54663C43.1001 6.13985 43.723 6.77082 44.3055 7.43685C46.5327 9.97691 48.1587 13.0077 49.0458 16.3055C51.8609 18.2254 53.9857 21.0108 55.1102 24.2466C56.2346 27.4823 56.2966 30.9958 55.2908 34.2693Z" fill="#3DCFB6"/>
<path d="M28.3286 19.8054L21.2747 26.9267C20.8675 26.0234 20.2527 25.2307 19.4762 24.6186C18.7023 24.0065 17.7909 23.5939 16.8255 23.416C15.8575 23.238 14.8598 23.3 13.9215 23.5966C12.9831 23.8905 12.1283 24.4136 11.4326 25.1147C10.7369 25.8158 10.2219 26.6787 9.928 27.6278C9.63409 28.5743 9.57477 29.5801 9.75004 30.5589C9.92801 31.535 10.3352 32.4545 10.9419 33.2365C10.9985 33.3066 11.0551 33.3794 11.1144 33.4468C11.6942 34.1317 12.4141 34.6791 13.2285 35.0512H13.2258L6.19072 42.1563L6.17454 42.1725C5.53009 41.671 4.92608 41.1209 4.37061 40.5304C2.67454 38.7345 1.4072 36.5558 0.684553 34.1586C-0.272688 30.9768 -0.224152 27.5712 0.827466 24.419C1.46653 22.5019 2.45882 20.7357 3.74233 19.2068C4.56206 18.2226 5.50582 17.3408 6.55204 16.575C6.7327 16.4429 6.91606 16.3135 7.10212 16.1895H7.10482C9.65836 14.4853 12.6514 13.5658 15.7227 13.5469C16.7608 13.5442 17.7936 13.644 18.8074 13.8435H18.8101C19.6433 14.008 20.4631 14.2399 21.2612 14.5392C21.7681 14.728 22.267 14.9437 22.7523 15.1837C24.9392 16.2703 26.8483 17.8532 28.3286 19.8054Z" fill="#3DCFB6"/>
<path d="M27.8841 35.6013V45.4299H15.723C12.9996 45.4434 10.3355 44.7423 7.98151 43.413L15.7203 35.6013H27.8841Z" fill="#3DCFB6"/>
</g>
<defs>
<clipPath id="clip0_3418_3319">
<rect width="56" height="45.5" fill="white"/>
</clipPath>
</defs>
</svg>
