<svg width="47" height="56" viewBox="0 0 47 56" fill="none" xmlns="http://www.w3.org/2000/svg">
<g clip-path="url(#clip0_3418_3295)">
<path d="M45.9508 44.4452C45.7538 44.0846 45.5131 43.6687 45.1675 43.3032C44.649 42.759 44.3308 42.0703 44.1354 41.0696C43.9303 40.0121 43.5459 38.7694 42.4476 37.923C43.1502 34.7748 42.6947 31.6396 41.0408 28.1438C39.7503 25.4195 37.909 23.1177 36.1275 20.8922L35.7576 20.4292C34.136 18.397 33.4173 16.2625 33.4964 13.7104C33.5643 11.5467 33.3931 9.3114 32.9844 7.06802C32.2948 3.28141 30.0449 0.84147 26.6466 0.199809C25.9424 0.0682273 25.1688 0 24.3499 0C23.699 0 22.9964 0.0422359 22.2599 0.126708C18.453 0.560439 15.8171 3.03124 15.2082 6.73663C14.89 8.68111 14.806 10.7897 14.9594 13.007C15.2179 16.7498 14.3602 19.6755 12.2557 22.2145C11.1283 23.5758 10.0575 25.132 8.88328 27.1122C7.35858 29.6838 5.65622 33.1601 5.92918 37.3447C5.80643 37.4958 5.69014 37.6452 5.57546 37.7931C4.90679 38.6459 4.37864 39.3184 3.47739 39.5832C0.973919 40.3142 -0.0613875 42.067 0.397313 44.7896C0.579824 45.8731 0.547521 46.7211 0.295559 47.5398C-0.142145 48.9547 -0.0936904 50.087 0.440922 51.0032C0.98684 51.9356 1.98823 52.5448 3.50162 52.8648C3.81011 52.9298 4.12022 52.9785 4.42225 53.0126C6.7416 53.2677 8.51341 53.6007 10.1786 54.4665C11.2592 55.0269 12.485 55.2332 13.3136 55.3372C13.7012 55.3876 14.0776 55.4119 14.4313 55.4119C16.4211 55.4119 17.9701 54.6436 19.0393 53.1279C19.4156 53.0873 19.792 53.0435 20.1683 53.0012C21.735 52.8242 23.355 52.639 24.933 52.5643C25.0105 52.5594 25.0896 52.5578 25.1688 52.5578C25.6937 52.5578 26.2477 52.6325 26.8356 52.7121C27.2701 52.7706 27.7191 52.8307 28.1794 52.8648C29.1356 54.8596 30.9171 56 33.091 56C33.322 56 33.5594 55.987 33.7969 55.961C35.8029 55.745 37.5892 54.7589 39.1074 53.0305C39.9392 52.0834 40.9875 51.3037 42.3103 50.649L42.4185 50.5954C43.2002 50.2088 44.0094 49.8076 44.7814 49.3056C46.5759 48.1344 47.0023 46.3621 45.9508 44.4452ZM44.0772 48.214C43.3375 48.698 42.5332 49.0895 41.7385 49.4843C40.3737 50.1601 39.1607 51.008 38.1384 52.1711C36.9528 53.5194 35.4976 54.4698 33.658 54.6696C31.6907 54.8807 30.1063 54.0019 29.289 52.1809C29.0887 51.7374 28.8674 51.6042 28.399 51.5766C27.22 51.5067 26.0393 51.2095 24.8716 51.2663C22.7315 51.3687 20.6011 51.6546 18.4708 51.8836C18.3448 51.8966 18.2027 52.0461 18.1251 52.1679C17.0188 53.9093 15.339 54.2846 13.4751 54.049C12.5545 53.9321 11.5854 53.7339 10.7714 53.3115C8.80736 52.2914 6.70606 51.9567 4.56277 51.7212C4.29627 51.6903 4.02977 51.6481 3.76812 51.5928C1.5796 51.1315 0.868935 50.0593 1.52953 47.9248C1.88001 46.7877 1.86063 45.7042 1.67166 44.5736C1.33248 42.5625 1.90747 41.3945 3.83757 40.8308C5.46563 40.3548 6.1876 39.0293 7.15184 37.8986C7.23906 37.7963 7.2439 37.5916 7.2326 37.4389C6.94187 33.8684 8.23722 30.7396 9.99288 27.7783C10.9684 26.1327 12.0328 24.5147 13.249 23.0462C15.7105 20.0751 16.5116 16.7092 16.2483 12.9177C16.111 10.9391 16.1627 8.90041 16.4841 6.94781C17.0058 3.76062 19.2073 1.78203 22.4053 1.41815C23.7248 1.26708 25.1138 1.23296 26.4092 1.47826C29.5571 2.07119 31.1723 4.32756 31.7133 7.30195C32.0929 9.38938 32.2722 11.5515 32.2059 13.6698C32.1155 16.5695 32.9796 19.024 34.7498 21.2431C36.6347 23.605 38.5631 25.9345 39.873 28.7026C41.3541 31.8313 42.005 35.0412 40.9455 38.5549C42.2311 39.0634 42.6398 40.1485 42.8675 41.3198C43.0807 42.4065 43.4586 43.3861 44.2323 44.2015C44.4697 44.4517 44.6522 44.7652 44.8202 45.0723C45.539 46.3832 45.3225 47.4034 44.0772 48.214Z" fill="#B5E93B"/>
<path d="M22.9237 11.3144C23.0126 10.8709 23.166 10.4225 23.3792 10.0262C24.379 8.16617 26.5594 8.13043 27.6416 9.93683C28.504 11.3777 28.3926 13.2231 27.3201 14.5324C26.8937 14.3554 26.5029 14.1929 26.2348 14.0808C26.301 13.2962 26.4431 12.6091 26.3931 11.9349C26.3494 11.3339 26.0506 10.7198 25.3287 10.7166C24.6552 10.7117 24.3983 11.2949 24.2417 11.8537C24.1415 12.2095 24.1448 12.5944 24.1028 12.9681C22.8349 12.713 22.6831 12.523 22.9237 11.3144Z" fill="#B5E93B"/>
<path d="M17.9918 9.56461C18.5668 9.01555 19.2726 8.95869 19.8783 9.4639C20.7795 10.2176 21.0832 11.2508 20.9507 12.3652C20.9152 12.6543 20.3919 12.8834 19.9655 13.2489C19.8573 12.5926 19.8411 11.5367 19.0077 11.3174C18.3843 11.155 18.2696 12.1394 18.2615 12.539C18.2567 12.7729 18.6863 14.1635 18.5684 14.2577C18.5523 14.2707 18.3746 14.4169 18.2034 14.5582C16.8919 13.4519 16.7966 10.7082 17.9934 9.56461H17.9918Z" fill="#B5E93B"/>
<path d="M27.0127 14.7925C25.916 14.2954 24.829 13.7707 23.7194 13.3045C23.1832 13.0787 22.605 12.9569 22.0445 12.7896C21.048 12.8627 20.263 13.2866 19.5459 13.8974C19.0565 14.3165 18.5607 14.7308 18.0471 15.119C16.7743 16.0807 16.7582 16.94 18.0277 17.9456C18.5736 18.3809 19.1647 18.7594 19.6945 19.2127C20.9866 20.3205 22.261 20.4992 23.776 19.7276C24.7305 19.2419 25.6851 18.7529 26.6267 18.2429C26.9303 18.0772 27.2211 17.8692 27.4747 17.6321C28.6311 16.5485 28.4454 15.4439 27.0127 14.7925ZM21.2983 18.5466C19.7494 18.4183 18.6544 17.4745 17.6982 16.3634C17.7466 16.2935 17.7951 16.222 17.8452 16.1522C18.0874 16.365 18.3329 16.5745 18.5736 16.7906C20.4165 18.454 21.8636 18.6587 24.0812 17.533C24.7515 17.1935 25.3847 16.7825 26.0452 16.4251C26.3521 16.2578 26.6865 16.1424 27.0079 16.0044C27.0386 16.0872 27.0709 16.1701 27.1016 16.2529C25.2183 17.148 23.608 18.7383 21.2983 18.5466Z" fill="#B5E93B"/>
<path d="M17.5395 51.8805C16.8321 53.1427 15.5949 53.3961 13.8118 53.5017C13.1189 53.3084 11.9075 53.1573 10.8755 52.6407C8.92437 51.6661 6.8683 51.2908 4.74761 51.0861C4.5328 51.0667 4.32122 51.0325 4.10963 50.9919C2.04548 50.5923 1.55771 49.8857 2.21992 47.8957C2.62693 46.6692 2.46865 45.5013 2.30067 44.2992C2.08101 42.7234 2.49287 41.9323 3.99819 41.4498C5.29676 41.0324 6.22547 40.2559 7.0072 39.1577C8.33162 37.2994 9.83855 37.2425 11.2728 39.0213C11.977 39.8936 12.4696 40.9349 13.0737 41.8917C13.962 43.3001 14.8503 44.7085 15.7645 46.1007C16.2377 46.8203 16.7869 47.4912 17.2617 48.2108C18.0289 49.374 18.247 50.6167 17.5395 51.8805Z" fill="#B5E93B"/>
<path d="M29.4336 47.1336C26.2194 49.2486 22.8389 50.056 19.1177 48.5046C17.7965 47.9523 17.1456 46.8395 16.3961 45.7755C16.4607 45.7057 16.4898 45.6439 16.5318 45.6326C18.084 45.2183 18.5411 44.3362 17.6721 42.949C17.026 41.9174 16.1183 41.0337 15.2445 40.1679C14.7164 39.6432 14.0429 39.2598 13.413 38.8472C10.8675 37.1724 10.0422 35.2994 10.5881 32.2811C11.0177 29.9013 12.1774 27.8447 13.4114 25.8255C13.4776 25.8564 13.5422 25.8856 13.6068 25.9165C13.2918 26.5533 12.985 27.1949 12.6603 27.8269C11.7042 29.6804 11.0032 31.6086 11.2891 33.7334C11.4005 34.5716 11.7607 35.3757 12.0078 36.1961C12.0853 36.1717 12.1645 36.1473 12.242 36.1214C12.4164 35.0931 12.481 34.0307 12.7895 33.0446C13.2951 31.4267 13.9007 29.8331 14.5726 28.2768C15.7485 25.5494 17.0406 22.8706 17.6107 19.9239C17.706 19.4252 17.7722 18.9216 17.8788 18.2555C18.47 18.7039 18.9723 19.0483 19.4326 19.443C20.8782 20.6857 22.2397 20.9099 23.8904 20.0506C25.3553 19.2887 26.7831 18.457 28.1948 17.6724C28.8134 19.4057 29.4013 21.29 30.1555 23.1029C31.0778 25.3203 32.1793 27.4597 33.1242 29.6674C33.612 30.8045 33.9608 32.005 34.3129 33.1941C34.5827 34.107 34.5423 34.1184 35.6632 34.2516C36.6726 30.4958 35.1544 27.5799 32.8803 24.8314C32.9966 24.8915 33.1387 24.9272 33.2243 25.0182C35.6244 27.5751 37.1895 30.4699 36.7744 34.1314C36.726 34.5684 36.8778 34.7357 37.2299 34.929C37.8872 35.288 38.5721 35.6486 39.1196 36.149C39.5088 36.5031 39.7414 37.0668 39.9417 37.5785C40.0208 37.7848 39.8254 38.0999 39.6817 38.3404C39.0033 36.5063 36.8842 35.033 34.8911 35.0443C33.9899 35.0492 33.4747 35.4553 33.1904 36.3553C33.1209 36.5762 33.0499 36.8881 32.8851 36.9709C31.1763 37.8368 30.8711 39.4466 30.6352 41.1133C30.3881 42.8742 30.1297 44.6335 29.8438 46.3879C29.8002 46.656 29.6452 46.9939 29.4336 47.1336Z" fill="#B5E93B"/>
<path d="M37.69 38.2883C37.128 39.0665 36.3479 39.5928 35.3998 39.6123C34.9685 39.6204 34.3015 39.3182 34.14 38.9706C33.8072 38.2494 33.628 37.4063 33.6005 36.6054C33.5197 34.2694 38.9676 36.5193 37.69 38.2883Z" fill="#B5E93B"/>
<path d="M43.6599 47.7106C43.0268 48.1135 42.3485 48.4514 41.6701 48.773C40.1454 49.4975 38.7806 50.4137 37.6678 51.7182C36.7794 52.7594 35.6682 53.5132 34.3276 53.8868C31.5141 54.6698 29.2658 52.6912 29.6954 49.7932C29.7746 49.2587 29.8634 48.7162 30.0378 48.2109C30.8196 45.9416 31.1313 43.5975 31.2896 41.2144C31.338 40.4996 31.5173 39.7638 31.7903 39.101C32.0099 38.5649 32.4605 38.1263 32.8853 37.5366C33.197 38.3976 33.344 39.01 33.6283 39.551C34.1758 40.5955 35.0852 41.0243 36.1931 40.6572C36.9926 40.394 37.7824 39.9879 38.4608 39.486C39.6092 38.638 41.234 38.9531 41.8413 40.2527C41.8655 40.3014 41.9011 40.3469 41.9124 40.3989C42.2822 42.2508 43.043 43.8948 44.2075 45.4055C44.9327 46.3461 44.6775 47.0641 43.6599 47.7106Z" fill="#B5E93B"/>
</g>
<defs>
<clipPath id="clip0_3418_3295">
<rect width="46.5161" height="56" fill="white"/>
</clipPath>
</defs>
</svg>
