<svg width="56" height="51" viewBox="0 0 56 51" fill="none" xmlns="http://www.w3.org/2000/svg">
<path d="M16.7345 44.8787C14.6012 43.1859 12.3255 41.5628 10.7705 39.2774C7.49836 35.247 4.979 30.5808 3.25666 25.6771C2.21562 22.4885 1.85909 19.0699 0.517056 16.0045C-0.886844 13.7781 0.757633 11.3443 3.17491 10.6366C4.25113 10.4282 6.14346 9.40405 3.85922 10.1361C1.81133 11.6519 1.61314 8.76008 3.71309 8.57696C5.14621 8.38478 5.67378 7.20115 5.18369 6.13562C3.64532 5.12352 8.91404 4.01119 6.26303 2.50098C3.50139 -0.504986 10.126 -1.08364 8.49158 2.33021C8.10036 4.95533 13.1205 1.84908 11.9557 4.88052C13.1396 6.33632 16.3891 5.21186 16.3085 7.25422C18.0331 7.37382 18.625 8.83781 20.244 8.9502C21.9219 9.71466 24.9636 10.3171 25.5346 12.2247C23.8699 13.5543 20.0152 9.4782 19.83 13.1587C20.3329 18.5957 20.2047 24.1966 22.1765 29.3742C23.1091 32.5093 25.37 34.9772 27.4118 37.419C29.3654 39.8104 32.0117 41.4938 34.7088 42.9114C37.0748 44.0371 39.6257 44.7838 42.2042 45.2523C43.2501 44.4452 45.0965 41.4447 46.728 42.71C46.8055 44.1316 43.4897 45.6818 46.5721 45.5247C48.382 44.9738 49.6373 46.9368 51.1277 45.1662C52.5008 46.8071 56.835 44.1178 55.858 47.4718C54.5368 48.3318 52.6101 47.8121 51.2868 48.9951C49.105 47.8957 47.368 49.9788 44.9526 49.7154C42.2703 50.2001 39.5414 50.3958 36.8219 50.4C32.3604 50.0444 27.8044 49.8945 23.5601 48.3273C21.1692 47.6264 18.8359 46.2529 16.7345 44.8787ZM20.5024 46.5258C22.8371 47.5444 25.12 48.618 27.6787 48.9418C31.738 49.5114 35.9301 50.3876 40.004 49.5884C38.1602 48.7484 36.254 49.9156 34.4171 48.9878C32.2141 49.466 29.8499 48.8659 27.6102 48.5705C25.0633 47.4259 22.3148 46.6389 19.9298 45.1532C16.9495 44.055 21.4711 46.5616 22.2759 46.7646C24.1389 47.8315 20.2272 46.2177 19.6757 45.7742C18.1153 44.8911 17.9165 45.0757 19.5212 45.9725C19.8444 46.1634 20.1638 46.3633 20.5024 46.5258ZM16.0599 43.3584C18.3223 44.2038 16.05 41.7533 15.0132 41.8957C14.5539 41.0918 13.2584 40.5839 14.1723 40.152C12.5284 40.7278 12.4502 37.9625 11.6775 38.3576C9.9384 37.8036 11.0006 35.841 8.92907 34.6357C8.73997 33.3658 6.87087 32.2642 6.27471 30.3487C6.01141 29.3679 4.16303 26.5515 5.29849 29.1726C6.26528 31.6959 7.96628 33.8567 9.38183 36.0152C10.481 38.0702 11.7789 40.218 13.7807 41.5C14.4555 42.153 15.107 43.1537 16.0599 43.3584ZM9.54248 36.1392C9.62144 35.7945 9.95625 36.8852 9.54248 36.1392V36.1392ZM18.7693 44.3719C18.0489 44.0867 19.2703 44.1455 18.7693 44.3719V44.3719ZM19.9975 44.8238C19.4368 45.1728 19.8703 44.1998 19.9975 44.8238V44.8238ZM21.5347 45.4708C20.4068 45.0275 22.2666 44.7677 21.5347 45.4708V45.4708ZM24.1695 46.9523C22.7461 46.702 24.6142 46.2891 24.1695 46.9523V46.9523ZM19.11 43.3941C17.6418 43.3838 20.2468 42.6522 19.11 43.3941V43.3941ZM20.2633 43.9742C19.8523 44.1499 20.231 43.582 20.2633 43.9742V43.9742ZM26.027 47.6036C26.9535 48.1935 31.4376 48.8966 28.6298 47.8455C28.1599 47.9454 23.4233 46.4938 26.027 47.6036ZM16.8769 40.414C15.4387 39.9797 16.7868 40.0206 16.8769 40.414V40.414ZM19.5601 41.9916C18.1107 41.6126 20.2584 41.5003 19.5601 41.9916V41.9916ZM21.8171 43.3878C20.1915 43.0048 22.8191 43.0066 21.8171 43.3878V43.3878ZM15.7851 39.2143C16.8723 40.0555 20.1698 39.3221 17.4501 38.7121C16.2122 38.0464 13.4224 37.5907 15.324 39.1135L15.785 39.2143L15.7851 39.2143ZM23.3457 43.8698C21.4465 43.4253 23.7986 43.0914 23.3457 43.8698V43.8698ZM21.0483 42.0277C23.7068 42.7865 18.8126 40.3315 20.3923 41.7485L20.7424 41.9084L21.0483 42.0277L21.0483 42.0277ZM25.6545 44.7136C23.3803 44.3634 28.1723 44.7379 25.6545 44.7136V44.7136ZM14.8163 37.7446C14.1949 37.7843 14.7179 37.2714 14.8163 37.7446V37.7446ZM29.9136 47.124C29.0919 47.7599 29.9807 46.2694 29.9136 47.124V47.124ZM19.113 40.3993C18.3263 40.3809 18.9608 39.9493 19.113 40.3993V40.3993ZM15.0551 37.4477C13.0761 36.8051 16.5005 37.3602 15.0551 37.4477V37.4477ZM10.2478 34.3128C8.67494 33.0561 10.0679 33.6137 10.2478 34.3128V34.3128ZM22.8679 42.393C22.6032 42.0884 22.7434 42.4596 22.8679 42.393V42.393ZM30.7231 47.2563C30.2953 47.4324 30.6979 46.7907 30.7231 47.2563V47.2563ZM22.1727 41.6688C20.9402 41.4872 22.3141 41.069 22.1727 41.6688V41.6688ZM16.3208 37.9271C14.5981 37.1936 17.3961 37.8109 16.3208 37.9271V37.9271ZM26.2199 44.1328C24.5866 43.8058 27.8957 43.463 26.2199 44.1328V44.1328ZM21.0708 40.6065C23.0022 40.8577 18.7728 39.2811 20.6471 40.4654L21.0708 40.6065L21.0708 40.6065ZM27.7832 44.7704C29.5863 43.6828 28.9918 47.3171 30.8423 45.0774C32.6676 43.7328 29.266 46.7397 31.5156 45.3171C33.1425 44.2193 35.5455 45.8375 37.0636 46.3655C38.1553 46.3114 39.2166 47.3179 40.3358 46.7056C42.4902 46.1201 36.1229 45.8373 37.792 44.7986C35.8207 45.3774 34.3642 44.1085 33.3942 42.8346C31.183 42.3195 28.6263 41.1789 27.5227 39.2047C27.0728 38.4634 28.1727 39.3091 27.1343 38.0974C25.8019 36.9018 25.1365 35.5446 24.2421 34.0912C23.1735 33.5161 23.049 31.8233 22.941 34.0344C22.9495 32.6389 21.6509 31.6997 21.3339 32.0901C21.3282 30.7462 22.7237 31.4198 21.7468 30.4255C21.5366 29.0325 20.8443 27.581 20.6362 26.0083C20.3129 25.2502 20.5907 23.6266 19.5328 25.3427C19.1474 27.1565 19.4049 23.1139 20.0042 24.447C20.7909 23.0867 19.7218 23.2467 19.678 23.4356C20.1905 22.2878 20.0023 20.6599 19.5443 21.2809C19.8173 20.0645 19.9757 16.804 19.1356 17.3818C19.6448 16.1098 20.1013 11.5612 17.8907 13.2954C16.9947 13.3081 15.4432 13.6235 14.7098 13.9915C17.0093 15.2703 14.4785 14.4533 13.5425 14.2501C13.4205 15.4334 12.4933 14.9216 11.335 14.9332C13.1851 15.1641 10.4341 16.8422 9.37283 16.1903C7.99447 16.855 10.5624 18.514 9.40048 19.0269C9.54328 19.8003 7.28883 18.7477 7.46589 20.5336C6.12777 19.9657 7.28164 22.6521 7.95109 21.7435C10.227 22.3649 9.55327 23.7817 9.61123 25.1276C9.2404 25.9118 7.78044 23.2842 9.28607 23.4059C8.09824 21.4592 7.97212 22.7023 6.98508 23.6066C6.75545 23.6723 9.5028 24.8934 7.77869 25.4972C9.29555 25.7333 9.33871 27.0725 9.6475 27.9199C10.5592 28.878 10.3726 26.8621 11.4635 28.0134C10.7732 26.9877 7.80697 25.1234 10.1952 25.7213C10.1824 24.689 9.76325 23.8565 10.4949 23.8767C11.2195 22.5528 9.73608 27.1408 11.3693 25.4583C11.8214 25.2591 11.9334 24.1327 12.746 25.5646C13.9264 26.7361 13.1724 27.585 11.5074 26.5123C11.8053 27.5318 13.7347 27.8962 13.3721 29.4905C13.7565 30.8927 14.2943 30.3762 14.763 30.2951C15.1308 31.6576 15.3396 30.6557 15.357 30.0074C17.0407 30.371 16.6463 31.3751 17.1731 32.0767C18.3334 32.605 15.5125 28.4954 17.5044 30.8409C19.6 32.7498 18.2903 33.5466 16.4097 33.2408C17.6 33.1438 17.9838 34.8643 19.4727 34.8039C20.8304 35.4555 21.7496 37.9583 19.4093 36.9164C18.5977 36.1781 15.7253 35.2672 18.0714 36.6716C20.2382 37.684 21.9591 38.2896 24.049 39.5603C25.5446 40.6375 26.1907 41.8713 26.7576 42.1155C25.5006 42.7212 22.9695 41.6318 24.849 41.2979C23.6767 41.0825 22.3581 40.4844 23.481 41.958C24.4358 42.7623 26.8637 42.6771 27.299 42.7682C26.93 43.5883 26.2969 43.6535 27.3141 43.7171C26.1793 44.3273 27.678 44.4217 27.7831 44.7704H27.7832ZM25.4626 38.1589C24.7721 37.4304 24.5936 36.066 25.3399 37.2532C25.7227 37.4083 26.566 39.483 25.4626 38.1589H25.4626ZM33.0199 43.0021C33.0324 43.3322 33.4505 42.9739 33.0199 43.0021V43.0021ZM24.3724 36.3727C24.3459 35.2714 24.6221 37.2222 24.3724 36.3727V36.3727ZM23.6213 35.3532C22.7528 33.6603 24.7161 35.8326 23.6213 35.3532V35.3532ZM14.5191 29.0151C14.7701 29.8954 15.0293 28.8778 14.5191 29.0151V29.0151ZM21.7633 32.9765C22.0766 31.7894 22.1315 33.9726 21.7633 32.9765V32.9765ZM16.6455 29.3863C16.2847 28.7313 17.4002 30.0007 16.6455 29.3863V29.3863ZM21.0376 30.8068C20.2149 28.9471 21.6201 29.791 21.2197 31.1116L21.0376 30.8068ZM13.4634 25.7106C13.0955 25.1005 12.4871 23.3104 12.683 22.7639C12.8602 23.6539 14.559 26.5941 13.5163 23.9818C12.364 21.792 14.8937 24.6926 15.1539 25.2388C15.2751 25.7821 14.443 25.0903 15.0068 26.3643C13.9786 24.9138 14.3998 27.1655 13.4634 25.7106ZM11.1225 24.0833C11.2189 22.6647 11.6584 25.056 11.1225 24.0833V24.0833ZM12.1754 24.449C12.6779 23.3782 13.0274 25.9417 12.1754 24.449V24.449ZM9.64256 22.4722C8.77104 21.5985 8.14037 20.793 9.68333 21.9299C10.2779 21.9533 8.36242 20.0984 9.82651 21.3409C11.3661 21.6241 10.5867 23.8876 9.64256 22.4722ZM10.9731 22.4371C11.2417 22.9352 11.4792 21.9311 10.9731 22.4371V22.4371ZM11.7917 22.7019C11.0244 21.2509 12.723 23.3102 11.7917 22.7019V22.7019ZM10.1643 21.1328C7.6307 18.858 13.3478 22.3222 10.5782 21.5545L10.1642 21.1328L10.1643 21.1328ZM17.4233 25.3879C16.3269 24.7247 17.1327 20.7189 17.5066 23.4586C18.5725 23.1107 17.4478 24.8734 18.2427 24.8571C18.1175 25.9693 17.7618 26.3692 17.4233 25.3879ZM20.1082 26.9888C20.2158 25.7816 20.3345 27.8142 20.1082 26.9888V26.9888ZM19.6419 26.5239C19.6543 27.1313 19.7626 26.0082 19.6419 26.5239V26.5239ZM10.6613 20.3853C9.03361 18.1197 15.3916 22.677 11.7037 20.9599C11.3184 20.8582 10.8547 20.8219 10.6613 20.3853ZM15.8316 23.1509C15.6775 21.2432 16.1755 23.4671 15.8315 23.1509L15.8316 23.1509ZM19.757 25.6914C19.7797 26.4103 20.0608 24.6048 19.757 25.6914V25.6914ZM10.9106 19.5206C11.878 19.3119 14.9195 21.2346 12.1264 20.0698C11.816 19.7232 11.1544 19.8807 10.9106 19.5206ZM19.2177 23.6977C19.3211 21.747 19.7952 22.5325 19.2213 23.9769L19.2177 23.6977L19.2177 23.6977H19.2177ZM11.6307 18.8418C12.0248 18.2585 10.5844 16.2046 11.8383 18.1051C12.3801 18.5394 13.4071 18.8327 12.5004 19.0154C13.9264 20.2846 12.1526 19.3594 11.6307 18.8418ZM18.8068 23.0884C19.047 24.3902 19.0791 20.8663 18.8068 23.0884V23.0884ZM10.8075 16.7895C10.9665 17.1942 11.1086 16.6597 10.8075 16.7895V16.7895ZM12.6793 17.9135C13.1611 16.8937 13.568 19.0508 12.6793 17.9135V17.9135ZM17.9593 20.8768C17.9542 20.4851 18.0589 21.4465 17.9593 20.8768V20.8768ZM17.6535 20.1936C16.9206 18.3696 18.3351 21.1594 17.6535 20.1936V20.1936ZM17.2035 18.9977C17.0805 18.244 17.6216 19.9446 17.2035 18.9977L17.2035 18.9977ZM17.9358 17.7967C17.4329 16.9026 18.5709 13.8567 18.6978 15.7458C18.1671 17.2177 18.5447 18.0411 18.915 16.0669C19.5988 14.5131 18.7673 19.1329 17.9358 17.7967L17.9358 17.7967ZM18.6884 13.2669C18.737 13.5941 18.9076 12.9953 18.6884 13.2669V13.2669ZM17.4316 38.2512C17.1335 37.9887 17.469 38.4182 17.4316 38.2512V38.2512ZM20.0206 39.5725C21.4608 39.9453 21.4534 39.3465 20.1518 39.1685C19.4517 38.5115 17.2427 37.8146 19.2199 39.087C19.3508 39.4217 19.7646 39.4139 20.0206 39.5725ZM14.9074 36.1462C15.7008 36.7431 17.8959 37.8379 16.0377 36.3734C16.6642 35.639 14.8385 35.2481 15.4441 34.7569C13.9038 33.806 14.229 33.8906 15.3082 33.9205C13.4569 33.0856 15.5754 33.1481 15.4756 32.7203C14.7618 32.5781 11.93 31.4504 13.596 32.813C11.9024 31.9418 13.1924 33.1375 12.6805 33.0111C10.9488 32.5347 14.2227 34.3417 12.4055 33.8931C13.399 34.6874 15.0796 35.9277 12.8255 34.7337C12.5285 35.165 14.4386 35.8188 14.9074 36.1462ZM17.6152 37.7156C16.001 36.4079 20.9076 38.786 17.6152 37.7156V37.7156ZM31.4765 46.1874C31.0266 46.7496 31.519 45.5284 31.4765 46.1874V46.1874ZM32.9012 46.7924C33.6608 46.0498 32.9323 47.9752 34.1599 46.6106C34.1732 45.6336 34.1221 45.0566 32.7492 46.2433C32.3707 46.4551 32.2017 47.3555 32.9012 46.7924ZM10.2859 32.4633C8.6507 31.5429 10.0526 31.5381 10.2859 32.4633V32.4633ZM11.8072 33.4691C9.79158 32.6136 11.2423 32.5241 11.8072 33.4691V33.4691ZM20.462 38.7349C21.3069 39.4921 24.3428 39.2905 21.4882 38.8281C21.0655 38.1974 18.8036 38.3492 20.462 38.7349ZM32.3593 46.1478C31.0993 46.639 33.6598 45.0469 32.3593 46.1478V46.1478ZM35.0641 48.023C34.5035 48.1777 35.0722 47.6697 35.0641 48.023V48.023ZM35.0682 47.5284C36.5084 45.989 33.6728 47.6195 35.0682 47.5284H35.0682ZM6.54421 29.303C5.31676 27.5361 5.7812 26.7419 4.59752 25.2992C4.37344 24.196 2.56688 21.6925 3.66313 24.3447C4.66723 25.8959 4.9656 28.2976 6.54421 29.303ZM34.6165 47.039C33.5289 46.2864 37.266 45.3113 34.6165 47.039V47.039ZM36.6391 47.8384C35.7998 47.598 37.9659 46.6891 36.6391 47.8384V47.8384ZM9.835 30.5103C8.85431 30.4374 10.2147 29.9404 9.835 30.5103V30.5103ZM36.2168 47.2926C37.5014 46.457 35.9208 46.5853 35.9839 47.3695L36.2168 47.2926H36.2168ZM18.7822 36.2059C18.1038 36.2538 18.738 35.6416 18.7822 36.2059V36.2059ZM19.8596 36.8314C19.3332 36.9411 19.5172 36.1329 19.8596 36.8314V36.8314ZM38.2781 47.8573C39.9239 46.6595 37.2805 47.628 37.9327 48.0843L38.2781 47.8573ZM37.6479 47.55C36.2324 48.0523 38.9886 46.4166 37.6479 47.55V47.55ZM40.8679 49.7134C39.7743 49.5167 41.7681 49.1051 40.8679 49.7134V49.7134ZM10.6606 30.0993C11.8672 30.3721 15.4826 33.0974 13.3497 30.2878C12.2573 29.9616 12.9124 27.2676 11.7982 27.7444C12.5461 29.0049 12.4135 29.5414 10.8433 28.7467C8.86971 27.7748 9.73419 29.2284 10.1199 29.629C9.59428 29.7495 10.8151 30.0892 10.6606 30.0993ZM5.16311 25.7192C5.37914 24.8178 3.17404 20.7602 4.12183 23.686C4.46396 24.2989 4.42917 25.4605 5.16311 25.7192ZM15.2533 31.9953C14.632 31.471 15.2238 31.9211 15.2533 31.9953V31.9953ZM16.7834 32.3545C15.0921 31.9668 16.7826 31.3996 16.7834 32.3545V32.3545ZM30.0427 40.7876C29.7898 40.1352 29.0431 40.7724 30.0428 40.7876L30.0427 40.7876ZM30.6795 41.2568C30.3121 41.3273 30.5855 40.8917 30.6795 41.2568V41.2568ZM35.935 44.5966C35.3043 44.5485 36.4405 44.2198 35.935 44.5966V44.5966ZM7.90913 26.4265C6.36009 26.0238 9.35491 25.8617 7.90913 26.4265V26.4265ZM28.8755 39.7527C27.9538 39.987 28.8594 38.8084 28.8755 39.7527V39.7527ZM7.33791 25.0835C6.47878 24.875 8.26661 24.767 7.33791 25.0835V25.0835ZM10.0335 26.4009C9.74836 26.5183 10.0167 26.0905 10.0335 26.4009V26.4009ZM42.9117 46.7413C44.1059 46.497 46.8273 47.3546 47.2671 46.4219C45.8169 46.3863 42.2497 45.3896 42.0809 46.6597L42.3983 46.7102L42.9117 46.7413ZM10.8902 26.6187C10.1506 26.5829 10.911 25.6618 10.8902 26.6187V26.6187ZM3.80284 21.6586C2.57866 21.3827 3.48097 19.8355 3.80284 21.6586V21.6586ZM5.49292 22.0872C3.94598 21.5605 5.51368 21.5018 5.49292 22.0872V22.0872ZM6.45875 22.5658C6.17957 22.3376 6.24023 22.854 6.45875 22.5658V22.5658ZM12.5359 26.4989C11.8586 26.3025 12.822 26.2338 12.5359 26.4989V26.4989ZM5.81546 21.4865C3.85797 21.2801 5.65211 20.1095 5.81546 21.4865V21.4865ZM2.35052 19.2182C2.01286 19.458 2.30124 18.5827 2.35052 19.2182V19.2182ZM2.86592 18.8255C2.42342 18.9214 2.78184 18.072 2.86592 18.8255V18.8255ZM5.71362 20.5405C6.91779 20.0633 3.52024 19.5534 5.46758 20.4503L5.71362 20.5405ZM43.8257 44.2908C42.8461 44.0704 44.5964 43.5779 43.8257 44.2908V44.2908ZM48.4299 46.6987C47.6522 46.82 48.7388 45.7769 48.4299 46.6987V46.6987ZM6.00465 19.0346C5.05 19.2117 6.13151 18.143 6.00465 19.0346V19.0346ZM1.95306 16.296C1.73541 15.0372 1.76518 12.8277 3.84702 13.5744C1.06811 14.131 5.77034 17.059 5.17653 14.7472C6.345 14.8049 7.46232 14.0505 6.84913 15.1954C9.15135 14.9389 10.7474 12.9248 12.9712 13.207C14.7035 12.9758 16.5974 12.8004 18.4641 12.0969C19.9989 11.9853 21.4763 10.3182 20.6351 9.3301C18.5421 9.15143 16.3512 9.41563 14.0378 9.87953C11.4743 10.4172 9.14585 11.4387 6.55936 11.8771C4.03827 12.2188 7.06646 12.8185 6.34431 12.9521C5.02877 13.4126 7.9132 13.7232 6.17376 14.2086C5.09952 14.0026 3.98137 13.6302 4.44024 12.4881C2.02525 12.8042 -0.0968308 13.8154 1.81115 16.2948L1.95306 16.2959L1.95306 16.2959V16.296ZM7.7723 13.3059C8.33853 11.2015 10.8059 15.0377 8.70038 13.5855C8.4489 13.3956 8.0353 13.2407 7.7723 13.3059ZM7.88246 12.2856C8.3169 12.63 8.69969 11.6714 7.88246 12.2856V12.2856ZM8.92015 12.3023C8.99393 11.3339 11.2956 12.8149 9.29967 12.6509L8.92015 12.3023ZM10.3396 11.7265C10.4886 12.27 10.858 11.1154 10.3396 11.7265V11.7265ZM10.7028 11.4811C11.5659 10.4348 15.5908 10.8134 12.6447 11.3791C11.855 10.7793 11.2497 11.7328 10.7028 11.4811ZM15.9553 10.6643C15.824 7.8062 18.5649 11.6799 15.9553 10.6643V10.6643ZM17.4457 10.656C17.9906 9.21554 19.5603 10.078 17.6979 10.3666C17.7383 10.5199 17.6433 11.1102 17.4457 10.656ZM5.41695 18.2953C3.68856 17.4226 7.04502 17.2894 5.41695 18.2953V18.2953ZM6.62074 18.6327C5.38043 18.3844 7.19156 18.0204 6.62074 18.6327V18.6327ZM3.0738 16.0931C1.97294 15.819 4.00409 15.3721 3.0738 16.0931V16.0931ZM51.1476 46.4352C50.4365 46.8122 51.1745 45.5987 51.1476 46.4352V46.4352ZM46.2627 43.072C45.6349 43.156 46.4016 42.109 46.2627 43.072V43.072ZM52.4908 46.7595C53.7915 46.764 56.4318 46.352 53.6018 46.3533C53.1577 46.4232 51.0141 46.4082 52.4908 46.7595L52.4908 46.7595ZM7.67962 18.0425C8.73227 17.9695 9.32654 16.871 7.47604 16.9341C4.60808 16.6346 10.0064 17.9249 7.10812 17.5559C6.71869 17.8161 7.657 18.1144 7.67962 18.0425ZM8.60669 18.5159C8.28118 18.8781 8.49679 17.834 8.60669 18.5159V18.5159ZM9.7064 15.5574C9.0743 15.4046 10.1632 14.9858 9.7064 15.5574V15.5574ZM6.20561 9.65367C8.08426 9.00888 10.6533 8.28435 11.5403 9.97115C10.6376 8.87496 11.176 7.79583 12.0287 9.39854C13.2343 11.0201 13.8379 8.66099 13.0537 8.11708C13.9474 9.23729 14.9638 9.76664 13.652 8.18788C15.0775 6.45803 10.7979 8.4144 9.82521 8.3947C9.35721 8.60663 4.99342 9.51747 6.20561 9.65367ZM7.30661 7.52633C8.37802 6.71048 11.0121 8.01162 9.32183 6.71552C9.15658 6.56825 5.6201 7.69837 7.30661 7.52633ZM11.2127 7.68902C12.4666 7.7213 10.6718 5.98951 12.166 6.77424C11.9206 5.96542 10.4263 5.814 9.69576 5.49086C9.28256 6.23035 10.5368 7.69896 11.2127 7.68902ZM7.99152 4.11181C7.23125 4.4126 8.42532 3.51852 7.99152 4.11181V4.11181ZM9.58798 4.49732C11.6087 4.22692 9.07288 3.61937 9.18079 4.47559L9.58798 4.49732V4.49732V4.49732ZM6.60707 2.14411C5.18425 0.270242 9.28287 2.4591 7.83729 0.497096C6.62059 -0.480369 5.45141 1.59708 6.60707 2.14411ZM24.8667 12.0666C25.5192 10.8995 22.1724 10.4934 24.427 11.653C24.6346 11.723 24.5876 12.1474 24.8667 12.0666Z" fill="#3DCFB6"/>
</svg>
