<svg width="56" height="56" viewBox="0 0 56 56" fill="none" xmlns="http://www.w3.org/2000/svg">
<mask id="mask0_3418_3285" style="mask-type:luminance" maskUnits="userSpaceOnUse" x="0" y="0" width="56" height="56">
<path d="M56 0H0V56H56V0Z" fill="white"/>
</mask>
<g mask="url(#mask0_3418_3285)">
<path fill-rule="evenodd" clip-rule="evenodd" d="M6.08668 14.6082H27.9995V12.1734H14.6082V6.08668C14.6082 6.08668 14.6082 0 27.9995 0C41.3908 0 41.3908 6.08668 41.3908 6.08668C41.3908 6.08668 41.4915 16.9265 41.4412 20.6366C41.3908 24.3477 38.9559 26.7816 35.2962 26.7816H20.6959C15.8262 26.7816 12.1743 30.4334 12.1743 35.3031V41.3898H6.08767C6.08767 41.3898 0 41.3908 0 27.9995C0 14.6082 6.08668 14.6082 6.08668 14.6082ZM23.1298 6.08767C23.1298 7.43203 22.0393 8.52253 20.6949 8.52253C19.3505 8.52253 18.26 7.43203 18.26 6.08767C18.26 4.7433 19.3505 3.6528 20.6949 3.6528C22.0393 3.6528 23.1298 4.7433 23.1298 6.08767Z" fill="#3DCFB6"/>
<path fill-rule="evenodd" clip-rule="evenodd" d="M49.9135 41.391H28.0007V43.8258H41.3919V49.9125C41.3919 49.9125 41.3919 55.9992 28.0007 55.9992C14.6094 55.9992 14.6094 49.9125 14.6094 49.9125V35.3043C14.6094 31.6515 17.0442 29.2176 20.6961 29.2176H35.3053C40.175 29.2176 43.8268 25.5658 43.8268 20.6961V14.6094H49.9135C49.9135 14.6094 56.0002 14.6094 56.0002 28.0007C56.0002 41.3919 49.9135 41.3919 49.9135 41.3919V41.391ZM37.7382 49.9135C37.7382 51.2579 36.6477 52.3484 35.3033 52.3484C33.9589 52.3484 32.8684 51.2579 32.8684 49.9135C32.8684 48.5691 33.9589 47.4786 35.3033 47.4786C36.6477 47.4786 37.7382 48.5691 37.7382 49.9135Z" fill="#3DCFB6"/>
</g>
</svg>
