<svg width="44" height="56" viewBox="0 0 44 56" fill="none" xmlns="http://www.w3.org/2000/svg">
<path fill-rule="evenodd" clip-rule="evenodd" d="M28.9238 0H19.7546V13.8406C18.3857 13.4901 17.2529 13.373 15.7659 13.373C6.18363 13.373 0 19.3816 0 28.6399C0 38.2489 5.82962 43.252 17.0287 43.2638C20.7696 43.2638 24.2272 42.9142 28.9238 42.0258V0ZM16.9841 20.9466C18.117 20.9466 19.002 21.0634 20.0759 21.4142V35.9924C18.766 36.1678 17.9399 36.2249 16.9252 36.2249C12.2286 36.2249 9.66767 33.5598 9.66767 28.733C9.66767 23.7754 12.3464 20.9466 16.9841 20.9466Z" fill="#B5E93B"/>
<path d="M43.9192 35.5431V14.5015H34.7617V32.4101C34.7617 40.3124 34.3486 43.3168 33.0389 45.9107C31.7879 48.4473 29.829 50.1095 25.7814 51.9905L34.2897 56C38.3374 53.9883 40.2963 52.1669 41.7833 49.2785C43.3764 46.2742 43.9192 42.7894 43.9192 35.5431Z" fill="#B5E93B"/>
<path d="M43.0069 0H33.8376V9.31675H43.0069V0Z" fill="#B5E93B"/>
</svg>
