<svg width="56" height="49" viewBox="0 0 56 49" fill="none" xmlns="http://www.w3.org/2000/svg">
<path d="M2.33589 19.1086C5.2865 20.5365 21.7607 27.2415 24.3425 28.4831C26.9243 29.7248 28.7684 29.7248 32.0878 28.0486C35.3458 26.3102 50.8364 19.9157 53.787 18.3636C55.3238 17.5565 56 16.9357 56 16.3769V10.7273C56 10.1686 55.2624 9.67192 53.787 9.11317L32.5796 0.794012C29.629 -0.323486 28.461 -0.261403 25.0187 0.980262C21.5148 2.22193 5.16356 8.74067 2.27442 9.85817C0.860593 10.4169 0.0614711 10.9757 0.0614711 11.5344H0V17.184C0 17.8048 0.860592 18.4257 2.33589 19.1086ZM29.1372 19.9157L20.101 16.1286L33.0714 14.1419L29.1372 19.9157ZM48.7464 10.9136L41.0626 13.9557L40.2634 14.2661L32.6411 11.224L41.124 7.80942L48.7464 10.9136ZM26.3096 5.32609L25.0801 2.96693L28.9528 4.51901L32.6411 3.27734L31.6575 5.69859L35.4072 7.1265L30.551 7.62317L29.4446 10.2307L27.7234 7.37484L22.1295 6.87817L26.3096 5.32609ZM16.6586 8.6165C20.4698 8.6165 23.6048 9.85817 23.6048 11.3482C23.6048 12.8382 20.5313 14.0798 16.6586 14.0798C12.8474 14.0798 9.7124 12.8382 9.7124 11.3482C9.7124 9.85817 12.8474 8.6165 16.6586 8.6165ZM2.33589 28.7936C5.2865 30.2215 21.7607 36.9265 24.3425 38.1681C26.9243 39.4098 28.7684 39.4098 32.0878 37.7336C35.3458 35.9952 50.8364 29.6006 53.787 28.0486C55.3238 27.2415 56 26.6206 56 26.0619V20.4123C56 20.9711 55.2624 21.5298 53.8485 22.3369C50.8979 23.889 35.4072 30.3456 32.1493 32.0219C28.8913 33.7602 27.0472 33.7602 24.4654 32.4565C21.8836 31.2148 5.34797 24.5098 2.39737 23.0819C0.922063 22.399 0.0614711 21.7782 0.0614711 21.2194V26.9311C2.33577e-07 27.4898 0.860592 28.0486 2.33589 28.7936ZM2.33589 38.106C5.2865 39.534 21.7607 46.239 24.3425 47.4806C26.9243 48.7223 28.7684 48.7223 32.0878 47.046C35.3458 45.3077 50.8364 38.9131 53.787 37.361C55.3238 36.554 56 35.9331 56 35.3744V29.7248C56 30.2836 55.2624 30.8423 53.8485 31.6494C50.8979 33.2015 35.4072 39.6581 32.1493 41.3344C28.8913 43.0727 27.0472 43.0727 24.4654 41.769C21.8836 40.5273 5.34797 33.8223 2.39737 32.3944C0.922063 31.7115 0.0614711 31.0906 0.0614711 30.5319V36.2436C2.33577e-07 36.7402 0.860592 37.361 2.33589 38.106Z" fill="#B5E93B"/>
</svg>
