<svg width="55" height="56" viewBox="0 0 55 56" fill="none" xmlns="http://www.w3.org/2000/svg">
<path fill-rule="evenodd" clip-rule="evenodd" d="M28.3471 54.7207C29.3662 55.5635 30.5611 55.9229 31.8509 55.9895C32.3844 56.0173 32.9332 55.9912 33.4581 55.8956C34.2907 55.7444 35.121 55.5544 35.9308 55.3104C37.5801 54.8128 39.0053 53.9529 40.0693 52.5641C40.6756 51.7725 41.1732 50.9166 41.4928 49.9702C41.7567 49.1894 42.0047 48.4006 42.202 47.6016C42.3578 46.972 42.4352 46.322 42.5296 45.6788C42.5927 45.2534 42.6308 44.8234 42.67 44.394C42.7337 43.6974 42.8003 43.0019 42.8463 42.3035C42.8788 41.8178 42.8776 41.3298 42.8964 40.8436C42.9026 40.6952 42.9265 40.5479 42.9408 40.4006C42.9527 40.2635 43.0221 40.2163 43.162 40.2186C43.6533 40.226 44.1459 40.2385 44.6366 40.2163C45.1866 40.1918 45.7405 40.168 46.2819 40.0775C47.0524 39.9485 47.8167 39.7853 48.5727 39.5884C49.4644 39.3547 50.2828 38.9367 51.071 38.4613C51.9878 37.9068 52.8249 37.2567 53.5023 36.419C54.0932 35.6899 54.373 34.8448 54.2302 33.923C54.0232 32.5836 52.8977 31.7061 51.5891 31.6464C51.1148 31.6248 50.6337 31.6749 50.1617 31.7346C49.5901 31.8074 49.0271 31.9359 48.4572 32.0206C48.0637 32.0798 47.665 32.1059 47.2726 32.1469L47.2618 32.0957C47.9954 30.7098 48.7598 29.3397 49.4536 27.935C49.9865 26.8567 50.4415 25.7404 50.9118 24.6314C51.6909 22.7956 52.3125 20.9035 52.8278 18.9795C53.3208 17.1381 53.7428 15.2767 53.8765 13.3658C53.9299 12.6032 53.9669 11.8371 53.9618 11.0733C53.9584 10.4637 53.8924 9.85346 53.8315 9.24608C53.7622 8.54998 53.5517 7.89028 53.2606 7.2556C52.8773 6.41846 52.2818 5.73203 51.6557 5.08028C51.1546 4.55821 50.603 4.08277 50.0564 3.60733C49.2767 2.92942 48.3998 2.38744 47.4899 1.90688C46.4584 1.35902 45.3657 0.93522 44.2346 0.644348C43.5453 0.470561 42.8516 0.314871 42.1542 0.177437C41.9063 0.127391 41.656 0 41.4064 0H36.7043C36.5342 0 36.3659 0.111467 36.1947 0.130235C35.0694 0.253067 33.9582 0.482529 32.8763 0.81553C32.4725 0.940077 32.104 0.867282 31.7201 0.831454C31.4255 0.804155 31.136 0.728517 30.8415 0.713731C29.7205 0.657997 28.5985 0.57724 27.477 0.589183C26.4032 0.600557 25.3403 0.777995 24.3013 1.07259C23.4317 1.32054 22.5804 1.62139 21.8001 2.0792C21.4668 2.27484 21.2018 2.23787 20.8566 2.13892C19.6973 1.79928 18.5278 1.49507 17.35 1.22671C16.6157 1.06235 15.8599 0.979318 15.1098 0.901974C14.3899 0.827199 13.6672 0.782233 12.9436 0.767189C12.2373 0.751834 11.5264 0.752403 10.8229 0.814961C9.70308 0.914485 8.6049 1.14197 7.53687 1.50936C6.35955 1.91187 5.25946 2.51211 4.28385 3.2843C3.28861 4.07196 2.49014 5.03251 1.8492 6.13069C1.17301 7.28915 0.708371 8.52951 0.420604 9.83128C-0.148871 12.4012 -0.104289 15.2871 0.339847 17.8893C0.472925 18.6753 0.592923 19.4584 0.754436 20.2387C0.980214 21.3289 1.19576 22.418 1.44599 23.5031C1.62797 24.293 1.82532 25.0784 2.042 25.8592C2.37185 27.0524 2.69374 28.2472 3.06738 29.4262C3.41486 30.5221 3.81068 31.6021 4.20594 32.6826C4.74752 34.1768 5.41137 35.6237 6.19073 37.0088C6.87034 38.2093 7.64549 39.3337 8.68623 40.2578C9.37266 40.8675 10.1353 41.3355 11.0231 41.5698C11.7165 41.754 12.4434 41.7743 13.1461 41.629C13.9606 41.4635 14.7215 41.0991 15.3612 40.5683C15.4362 40.5075 15.5176 40.4603 15.6069 40.5729C15.9447 41.0006 16.3962 41.286 16.8688 41.5323C18.1439 42.1977 19.5332 42.3973 20.9442 42.4781C21.2866 42.4974 21.6312 42.4485 21.9753 42.4394C22.6469 42.4206 23.2987 42.2898 23.9396 42.1044C24.2763 42.0072 24.6044 41.8832 24.9468 41.7683C24.9644 42.1329 24.9872 42.4832 24.9985 42.8341L25.0457 44.7466C25.0548 45.0378 25.0662 45.329 25.0929 45.619C25.1623 46.3663 25.23 47.1136 25.3193 47.8586C25.3807 48.3722 25.4455 48.8891 25.5661 49.3907C25.8085 50.4016 26.14 51.3889 26.5568 52.3412C26.9558 53.2655 27.5696 54.0812 28.3471 54.7207ZM26.3049 45.1846C26.2645 44.2866 26.2343 43.3881 26.2144 42.4894C26.1905 41.385 26.1826 40.28 26.1672 39.1756L26.1644 39.1335C25.6031 39.4707 25.0497 39.8392 24.4645 40.1435C23.7781 40.5001 23.0331 40.7065 22.2613 40.7651C21.6568 40.8106 21.0432 40.8521 20.4415 40.8044C19.4542 40.7242 18.4669 40.57 17.5831 40.0832C17.2248 39.8859 16.8506 39.6453 16.6032 39.3308C16.0112 38.575 16.295 37.6201 17.1879 37.1606C17.8049 36.8422 18.4783 36.7096 19.1471 36.555C19.7292 36.423 20.3053 36.2655 20.8737 36.0829C21.4344 35.8992 21.7882 35.4443 22.1379 34.9978L22.6918 34.2858L22.0259 34.2164C21.365 34.155 20.7343 33.9724 20.1315 33.7051C19.6163 33.4771 19.6083 33.4521 19.2295 33.8627C18.5983 34.548 17.9841 35.2503 17.3647 35.9476C16.9092 36.4605 16.4571 36.9764 16.0027 37.491C15.5545 38 15.1337 38.5375 14.6497 39.0106C13.932 39.7136 13.0664 40.1361 12.0337 40.0883C11.3711 40.0576 10.7649 39.8256 10.2189 39.4463C9.09343 38.6626 8.33534 37.565 7.64435 36.4133C6.76001 34.937 6.0804 33.3645 5.49975 31.7494C5.09767 30.6324 4.69332 29.5149 4.34299 28.382C3.96139 27.1508 3.62642 25.9053 3.29714 24.6587C3.04804 23.7186 2.82738 22.7706 2.61696 21.8208C2.37472 20.7413 2.15062 19.6577 1.94475 18.5706C1.80769 17.8364 1.72864 17.0914 1.61774 16.3527C1.46817 15.3557 1.44087 14.3508 1.49547 13.3505C1.54381 12.4491 1.6729 11.5505 1.80143 10.6553C1.97944 9.41669 2.38777 8.248 2.97468 7.14413C3.33672 6.47146 3.78045 5.84608 4.29579 5.28218C5.14317 4.34437 6.16855 3.66704 7.30938 3.15805C8.10615 2.8026 8.94841 2.58934 9.80659 2.42157C11.0805 2.17361 12.3658 2.18385 13.6511 2.21001C14.213 2.22195 14.7731 2.32375 15.3344 2.38005C16.5435 2.50005 17.7281 2.75483 18.898 3.06819C19.751 3.29681 20.5865 3.59368 21.4316 3.85073C21.5158 3.87633 21.6403 3.87405 21.7103 3.82912C22.8562 3.0807 24.1079 2.58706 25.4404 2.30441C25.946 2.19749 26.4681 2.15029 26.985 2.11731C27.6129 2.07807 28.247 2.04053 28.8737 2.0775C29.6273 2.12072 30.3785 2.23162 31.1275 2.33398C31.4915 2.38403 31.8464 2.50972 32.2103 2.54384C32.3855 2.56033 32.5703 2.43351 32.7546 2.39029C33.6952 2.17247 34.6319 1.93077 35.5811 1.75959C36.2874 1.6322 37.0097 1.57191 37.7274 1.53097C38.5293 1.4849 39.3357 1.45135 40.1364 1.49002C41.1488 1.53893 42.1537 1.68281 43.1455 1.91371C44.375 2.19977 45.5534 2.61493 46.6743 3.1916C47.512 3.62325 48.3077 4.12258 49.0248 4.73678C49.4946 5.14 49.9757 5.53753 50.3994 5.98681C50.9226 6.54073 51.456 7.09408 51.7848 7.80327C52.0321 8.33842 52.2084 8.89234 52.2574 9.47755C52.3176 10.2061 52.391 10.9369 52.3848 11.6665C52.3785 12.3637 52.2829 13.0604 52.2158 13.7565C52.0617 15.3421 51.7176 16.8935 51.2985 18.4245C50.9488 19.6891 50.5525 20.9403 50.1105 22.1757C49.7073 23.3148 49.2415 24.4329 48.7712 25.547C48.4245 26.3719 48.0481 27.184 47.6428 27.9817C46.8728 29.4899 46.0721 30.9827 45.1456 32.4045C44.9858 32.6496 44.834 32.901 44.6782 33.1518C45.0825 33.4242 45.5403 33.5203 46.001 33.5704C46.4395 33.6176 46.8865 33.6466 47.3244 33.6136C48.0256 33.5613 48.7245 33.4612 49.4218 33.3639C50.1122 33.2672 50.7884 33.071 51.4981 33.1228C52.2056 33.1745 52.7129 33.7125 52.6646 34.3757C52.6338 34.7954 52.4411 35.1554 52.1624 35.463C50.8458 36.9155 49.1931 37.7959 47.3028 38.2298C46.5845 38.3947 45.844 38.4795 45.1087 38.5483C44.4807 38.6037 43.8498 38.6185 43.22 38.5926C42.7582 38.5756 42.3004 38.4698 41.8284 38.4016C41.7806 38.8332 41.7357 39.2831 41.6811 39.7312L41.461 41.4504C41.3944 41.9952 41.3427 42.5423 41.2739 43.0872C41.2068 43.6161 41.1232 44.1421 41.0526 44.6704C40.9872 45.1624 40.9389 45.6572 40.865 46.1485C40.7529 46.9015 40.6454 47.6562 40.4981 48.4035C40.3218 49.2963 40.0523 50.1608 39.6104 50.9666C39.0724 51.9499 38.3098 52.6989 37.3384 53.2534C36.3375 53.825 35.2427 54.1224 34.1343 54.3715C33.3483 54.5484 32.5402 54.5768 31.7446 54.5046C30.3654 54.38 29.1882 53.7903 28.2982 52.7205C27.4491 51.6997 26.8741 50.5304 26.6688 49.2059C26.5722 48.5757 26.4971 47.9423 26.4436 47.307C26.382 46.6006 26.3358 45.8929 26.3049 45.1846ZM27.8552 36.1114C27.8637 36.5834 27.8148 37.0554 27.8171 37.5274C27.8267 39.7244 27.8426 41.9219 27.8614 44.1194C27.8648 44.4782 27.8825 44.8382 27.9081 45.1965C27.9621 45.9472 28.0155 46.6985 28.0883 47.4469C28.1407 47.9786 28.2117 48.5087 28.2953 49.0364C28.4148 49.7831 28.7549 50.4485 29.1404 51.0849C29.4726 51.632 29.9054 52.0961 30.4746 52.4168C31.4426 52.9611 32.4839 53.0066 33.5337 52.8064C34.2429 52.6716 34.9401 52.4538 35.6283 52.2292C36.3056 52.0119 36.9239 51.6421 37.4356 51.148C37.9185 50.6806 38.2608 50.1101 38.4917 49.4806C38.9393 48.2601 39.0798 46.9743 39.2646 45.6992C39.334 45.2215 39.3943 44.7427 39.4574 44.2644C39.5296 43.7201 39.6024 43.1764 39.6718 42.6322C39.7241 42.2261 39.7708 41.8206 39.8202 41.4151C39.8913 40.8328 39.9658 40.251 40.0335 39.6686C40.0853 39.2182 40.1285 38.7661 40.1751 38.3145C40.2343 37.7373 40.2974 37.1618 40.3491 36.5834C40.3878 36.1455 40.3719 35.699 40.4498 35.2685C40.5926 34.4797 40.9656 33.8087 41.6651 33.3742C41.9575 33.1933 42.2884 33.0739 42.6126 32.9203L42.5569 32.8356C42.2572 32.4466 41.9501 32.0639 41.656 31.6703C41.1942 31.0527 40.8621 30.364 40.5283 29.6719C40.2121 29.0156 39.8254 28.3945 39.4927 27.7456C38.912 26.6139 38.3206 25.485 37.7854 24.3322C37.1126 22.882 36.5826 21.3818 36.416 19.7757C36.3449 19.0967 36.3267 18.4177 36.4649 17.7449C36.6849 16.67 37.2457 15.8295 38.1898 15.2528C39.0656 14.7182 40.0409 14.5453 41.0401 14.4913C41.66 14.4577 42.2839 14.485 42.9271 14.485L42.9061 14.3764C42.5057 13.5393 42.132 12.6879 41.6936 11.8712C41.076 10.7179 40.2843 9.6783 39.4039 8.7132C38.7543 7.99559 38.0405 7.33884 37.2713 6.75115C36.5104 6.17505 35.7085 5.66037 34.8526 5.24009C33.8358 4.73433 32.762 4.35245 31.6541 4.10267C30.5821 3.86495 29.5044 3.71936 28.4045 3.70742C27.4673 3.69718 26.5358 3.7404 25.6224 3.95139C24.2439 4.27044 22.983 4.83801 21.8871 5.75705C21.2801 6.26585 20.7379 6.84725 20.2726 7.4882C19.7226 8.24174 19.2802 9.05727 18.9014 9.9109C18.3816 11.083 18.025 12.3018 17.7805 13.5552C17.6588 14.1808 17.5632 14.8103 17.466 15.4399C17.4319 15.6611 17.4296 15.8858 17.4091 16.1388L17.8254 15.9222L18.2315 15.7402C19.606 15.1118 21.0295 14.7074 22.5593 14.7535C23.2099 14.7728 23.831 14.9019 24.4099 15.1868C25.5189 15.7339 26.1672 16.6638 26.4493 17.8399C26.6438 18.652 26.7775 19.48 26.9071 20.3063C27.0084 20.9513 27.1124 21.603 27.1238 22.2536C27.1403 23.2045 27.0925 24.1576 27.0408 25.108C26.9965 25.9161 26.8293 26.7127 26.5449 27.4704C26.0307 28.8444 25.4575 30.1962 24.9223 31.5623C24.7455 32.0138 24.6095 32.4807 24.4429 32.9772L25.1185 32.9778C25.2004 32.9795 25.284 32.9818 25.3631 33.0005C25.9779 33.1455 26.5119 33.4242 26.9492 33.8974C27.5338 34.5252 27.8398 35.26 27.8552 36.1114ZM16.113 29.5968C15.7645 28.7768 15.5543 27.9047 15.4908 27.016C15.4317 26.1777 15.5312 25.344 15.6177 24.5091C15.7007 23.701 15.7712 22.8889 15.7951 22.0779C15.8355 20.7431 15.7456 19.4118 15.6819 18.0781C15.6438 17.2842 15.736 16.4806 15.8065 15.685C15.8702 14.9684 15.9498 14.2502 16.0857 13.5438C16.3126 12.3586 16.6146 11.1905 17.044 10.0582C17.4506 8.98448 17.9192 7.93976 18.5789 6.99854C19.0322 6.35249 19.5452 5.75022 20.0382 5.11896L19.8915 5.06664C18.2861 4.55707 16.6539 4.15784 14.9745 3.98438C14.1811 3.90192 13.3843 3.85415 12.5887 3.80637C12.3442 3.79216 12.0962 3.82514 11.8511 3.84846C11.2443 3.90704 10.6295 3.92978 10.0324 4.04353C9.01608 4.23689 8.04074 4.56219 7.1382 5.09166C6.33947 5.56166 5.63922 6.18176 5.07606 6.91778C4.4465 7.73161 4.02167 8.65178 3.71741 9.63224C3.35799 10.7896 3.18624 11.981 3.14017 13.1827C3.0998 14.2365 3.07989 15.296 3.26188 16.3459C3.39666 17.1267 3.48709 17.9166 3.63609 18.6952C3.83639 19.7567 4.06128 20.8135 4.31058 21.8646C4.67057 23.3683 5.03113 24.8731 5.45823 26.3586C5.86657 27.7809 6.32665 29.1907 6.82712 30.5841C7.23545 31.7209 7.70805 32.8367 8.20567 33.9372C8.52983 34.6543 8.92224 35.3447 9.33399 36.0158C9.77133 36.729 10.2695 37.4057 10.944 37.9233C11.7965 38.5761 12.4556 38.6779 13.3224 37.9608C13.6932 37.6543 14.0065 37.2744 14.3295 36.9132C14.8419 36.34 15.3367 35.7497 15.8474 35.1736C16.4975 34.4405 17.1555 33.7148 17.8089 32.984C17.9471 32.8299 18.0807 32.6707 18.215 32.5148L17.9915 32.3198C17.1857 31.5501 16.5464 30.6233 16.113 29.5968ZM40.7615 7.75663C41.2959 8.37752 41.803 9.02154 42.2811 9.68683C43.1974 10.9718 43.935 12.3753 44.4734 13.8589C44.7123 14.5157 44.9034 15.1789 44.8181 15.8971C44.7589 16.4004 44.7629 16.9106 44.7191 17.4167C44.6821 17.8376 44.615 18.2562 44.561 18.6759C44.4791 19.3083 44.3608 19.9395 44.3256 20.5748C44.2914 21.1799 44.3273 21.7907 44.3654 22.3964C44.4035 23.0123 44.4865 23.6253 44.5428 24.2395C44.6065 24.9374 44.6929 25.6334 44.7123 26.3324C44.7282 26.9057 44.677 27.4818 44.6275 28.055C44.564 28.7419 44.3972 29.4152 44.1328 30.0523C43.9491 30.5039 43.7301 30.9407 43.5237 31.3922L43.6067 31.4798L43.733 31.5776L43.8609 31.3501C44.9349 29.6604 45.889 27.8974 46.7164 26.0742C47.2469 24.8974 47.7502 23.7085 48.2258 22.5084C48.9673 20.6429 49.5664 18.7239 50.0178 16.7678C50.2225 15.8897 50.3795 14.998 50.5182 14.1063C50.6269 13.409 50.7167 12.7038 50.7372 12.0003C50.7582 11.2542 50.7173 10.5024 50.6485 9.75849C50.5967 9.1966 50.458 8.63131 50.1065 8.1735C49.5401 7.43815 48.9293 6.73523 48.178 6.17846C47.545 5.71041 46.9138 5.22872 46.2353 4.83517C45.1587 4.21016 43.9934 3.795 42.7758 3.51178C41.5867 3.23482 40.3833 3.11539 39.1719 3.0898C38.4576 3.07444 37.7399 3.15122 37.0273 3.2189C36.3813 3.27918 35.7392 3.38269 35.0891 3.46799C35.787 3.8604 36.4757 4.20959 37.124 4.62077C38.4889 5.4852 39.7128 6.52537 40.7615 7.75663ZM23.0291 31.9626C23.4698 30.5522 24.071 29.2044 24.6528 27.8497C25.1254 26.7504 25.383 25.5931 25.4689 24.4033C25.5115 23.817 25.5001 23.2233 25.4711 22.6352C25.4428 21.981 25.3829 21.3284 25.2914 20.68C25.1691 19.8531 25.0304 19.0256 24.8347 18.2141C24.6226 17.336 24.088 16.724 23.1713 16.4983C22.6134 16.3612 22.0583 16.3669 21.4936 16.4562C20.1156 16.6729 18.8542 17.1807 17.6792 17.9246C17.4427 18.0742 17.3118 18.1953 17.3534 18.5337C17.4398 19.2525 17.4586 19.9828 17.4552 20.7079C17.4506 21.7344 17.4068 22.7609 17.3682 23.7869C17.3556 24.1207 17.3073 24.4539 17.2709 24.7866C17.2163 25.2962 17.11 25.8052 17.1134 26.3142C17.1168 26.8386 17.1702 27.3748 17.2976 27.8827C17.702 29.4933 18.5573 30.8104 19.9603 31.7403C20.8231 32.3124 21.7774 32.6001 22.8255 32.6553C22.8949 32.4147 22.9591 32.1878 23.0291 31.9626ZM21.3821 18.1492C21.1973 17.7619 21.3031 17.4406 21.7307 17.2916C21.8354 17.2558 21.9423 17.216 22.0503 17.2057C22.1999 17.191 22.3506 17.2018 22.5013 17.2018C23.0444 17.2052 23.5665 17.2808 24.0141 17.6255C24.3019 17.8472 24.3792 18.1401 24.1927 18.4427C23.9282 18.8709 23.5261 19.0859 23.0314 19.1268C22.2528 19.1911 21.7063 18.8283 21.3821 18.1492ZM42.9789 18.0076L43.1557 16.4579C43.1813 16.2509 43.0727 16.194 42.8987 16.1889C42.351 16.1741 41.8039 16.1542 41.2562 16.1451C40.6398 16.1337 40.0386 16.2327 39.4676 16.467C38.8341 16.728 38.3518 17.1455 38.1545 17.8353C38.0101 18.3436 37.9645 18.8749 38.0203 19.4004C38.0973 20.2135 38.2814 21.0128 38.5679 21.7776C38.9513 22.7973 39.3516 23.8164 39.831 24.7935C40.4799 26.1157 41.2136 27.3965 41.9029 28.6988C42.0866 29.0463 42.2424 29.4097 42.434 29.8152C42.8211 29.0085 43.0324 28.1288 43.0539 27.2344C43.0727 26.4945 43.0141 25.7529 42.9709 25.013C42.9442 24.5603 42.8799 24.1099 42.8361 23.6583C42.7753 23.0293 42.682 22.3998 42.6672 21.7691C42.653 21.1276 42.6985 20.4826 42.7531 19.8417C42.8043 19.2286 42.9055 18.6196 42.9789 18.0076ZM41.7453 17.5106C41.5417 18.0719 41.1072 18.3892 40.5431 18.4819C40.0176 18.5689 39.5569 18.375 39.2146 17.9553C38.9706 17.6567 39.0639 17.3036 39.4295 17.1011C39.8493 16.8691 40.3105 16.8105 40.8547 16.7752C41.0032 16.802 41.225 16.8253 41.4365 16.885C41.7431 16.9714 41.8568 17.2035 41.7453 17.5106ZM25.4814 34.8011C25.1811 34.5554 24.783 34.5411 24.4975 34.8107C24.1426 35.1463 23.8304 35.5296 23.5182 35.9072C23.1582 36.344 22.8192 36.7978 22.3552 37.1362C21.679 37.6281 20.889 37.8317 20.0963 38.0245C19.4661 38.1781 18.8326 38.3208 18.2007 38.4675L18.1928 38.5494C18.3805 38.6359 18.5619 38.7445 18.7581 38.8065C19.722 39.1113 20.7031 39.2637 21.7222 39.1773C22.457 39.1141 23.1576 38.9538 23.8213 38.6393C24.7352 38.2065 25.4387 37.5201 26.0364 36.7227C26.1365 36.5896 26.182 36.3929 26.1934 36.2211C26.2338 35.6149 25.9261 35.1639 25.4814 34.8011ZM43.0801 34.5383C42.6075 34.697 42.223 34.9387 42.1087 35.4499C42.0308 35.7957 42.0024 36.1534 41.9722 36.5078C41.9666 36.5703 42.0445 36.6852 42.1036 36.7011C42.4676 36.7972 42.8338 36.9104 43.2058 36.9439C43.6636 36.9855 44.1288 36.9724 44.5894 36.9496C45.0865 36.9246 45.587 36.8922 46.0772 36.8103C47.2311 36.6158 48.3486 36.3007 49.3404 35.6456C49.6987 35.4096 50.0525 35.1684 50.4085 34.9284L50.3789 34.8778C49.9996 34.9341 49.6214 35.0029 49.2404 35.0433C48.4646 35.1264 47.6883 35.2139 46.9098 35.2589C46.5339 35.2805 46.1528 35.2082 45.7741 35.1775C45.1382 35.1258 44.5172 34.9847 43.9798 34.6447C43.6698 34.449 43.4105 34.4274 43.0801 34.5383Z" fill="#B5E93B"/>
</svg>
