<svg width="51" height="56" viewBox="0 0 51 56" fill="none" xmlns="http://www.w3.org/2000/svg">
<path d="M45.36 0H5.04C2.2568 0 0 2.2568 0 5.04V50.96C0 53.7432 2.2568 56 5.04 56H45.36C48.1432 56 50.4 53.7432 50.4 50.96V5.04C50.4 2.2568 48.1432 0 45.36 0ZM12.6 47.6V36.4L18.9 42L12.6 47.6ZM32.2 47.6V30.877C32.1727 29.5701 31.5434 28 28.7 28C23.0062 28 16.6194 30.8637 16.5557 30.8924L12.6 32.6844V8.4H18.2V24.2977C20.9958 23.3877 24.9039 22.4 28.7 22.4C32.1615 22.4 34.2335 23.7608 35.3619 24.9025C37.7706 27.3385 37.8035 30.4416 37.8002 30.8V47.6H32.2ZM33.6 17.5H28C30.2008 14.6125 31.5826 11.5738 32.2 8.4H37.8C37.422 11.5808 36.1326 14.63 33.6 17.5Z" fill="#B5E93B"/>
</svg>
