<svg width="52" height="42" viewBox="0 0 52 42" fill="none" xmlns="http://www.w3.org/2000/svg">
<path d="M51.3828 25.0736C51.3828 25.0736 49.6388 32.0614 40.9612 38.1079C40.9612 38.1079 31.5333 45.0941 17.7314 40.3464C17.7314 40.3464 8.41268 37.3453 2.67232 28.6569C2.4009 28.2456 2.1404 27.8295 1.89081 27.4103C1.80346 27.0717 1.66775 26.7458 1.52892 26.4263C-0.0512392 22.7876 -0.353856 18.301 0.413606 14.4267C0.415166 14.4203 0.416726 14.414 0.416726 14.4061C0.424525 14.3634 1.17171 10.0239 4.06841 6.70326C4.08245 6.68586 4.09805 6.66688 4.11053 6.64789C4.14328 6.60202 7.47675 1.92241 13.5743 1.92241C14.8628 1.92241 16.2027 2.13124 17.5598 2.54098C18.1136 2.74189 19.6126 3.30193 20.1383 3.5772C20.1446 3.58036 20.1492 3.58353 20.1539 3.58511C20.5174 3.76388 21.0118 3.98694 21.4065 4.16254C19.2242 4.82225 13.9253 6.95955 11.8803 12.533C9.2753 19.6315 12.8739 25.8567 12.8739 25.8567C12.8739 25.8567 15.3245 30.7167 20.6687 32.9568C20.6687 32.9568 16.4071 29.1046 16.5178 24.9613L16.5397 24.9835C16.6941 25.2081 17.4896 26.0592 17.4896 26.0592C18.3725 27.0227 19.3209 27.9181 20.3146 28.7471C25.5932 33.202 32.0184 35.5102 38.8631 33.8744C38.8631 33.8744 33.6297 34.2098 30.1418 30.2468C30.1418 30.2468 38.4373 30.6502 46.0979 22.2592C45.8904 22.4475 42.0313 25.8741 36.8322 24.8949C36.8322 24.8949 41.6241 22.3193 45.0028 15.1085C45.0028 15.1085 49.0211 7.13515 45.9965 0.59668C45.9965 0.59668 53.3934 7.53857 45.9528 19.0256C46.037 18.9686 48.759 17.086 51.7368 10.5175C51.7368 10.5175 53.3482 17.4372 48.6015 23.9994C48.6015 23.9994 46.4379 27.8738 41.359 30.1124C41.359 30.1124 44.3836 30.6281 51.3828 25.0736Z" fill="#3DCFB6"/>
</svg>
